<?xml version="1.0" standalone="no"?>
<!DOCTYPE svg PUBLIC "-//W3C//DTD SVG 20010904//EN"
 "http://www.w3.org/TR/2001/REC-SVG-20010904/DTD/svg10.dtd">
<svg version="1.0" xmlns="http://www.w3.org/2000/svg"
 width="160.000000pt" height="160.000000pt" viewBox="0 0 160.000000 160.000000"
 preserveAspectRatio="xMidYMid meet">
<metadata>
Created by potrace 1.11, written by Peter Selinger 2001-2013
</metadata>
<g transform="translate(0.000000,160.000000) scale(0.100000,-0.100000)"
fill="#000000" stroke="none">
<path d="M520 1374 c-41 -7 -88 -15 -105 -18 -44 -9 -134 -18 -180 -19 -26 -1
-44 -7 -53 -19 -9 -12 -26 -18 -52 -18 -27 0 -42 -5 -48 -17 -5 -10 -9 -240
-8 -528 l1 -510 35 1 c19 1 100 5 180 8 361 17 360 17 389 -3 67 -48 174 -48
241 -1 28 20 20 20 360 5 85 -4 172 -8 192 -9 20 -2 40 0 45 3 13 10 15 1022
2 1038 -6 7 -27 13 -47 13 -22 0 -40 7 -48 18 -7 9 -25 17 -41 18 -32 1 -170
15 -193 19 -101 20 -132 25 -205 29 -83 6 -111 -1 -150 -38 l-34 -32 -22 27
c-38 46 -115 56 -259 33z"/>
</g>
</svg>
